<?xml version="1.0" encoding="UTF-8" standalone="no"?>
<!-- Created with Inkscape (http://www.inkscape.org/) -->

<svg
   xmlns:dc="http://purl.org/dc/elements/1.1/"
   xmlns:cc="http://creativecommons.org/ns#"
   xmlns:rdf="http://www.w3.org/1999/02/22-rdf-syntax-ns#"
   xmlns:svg="http://www.w3.org/2000/svg"
   xmlns="http://www.w3.org/2000/svg"
   xmlns:sodipodi="http://sodipodi.sourceforge.net/DTD/sodipodi-0.dtd"
   xmlns:inkscape="http://www.inkscape.org/namespaces/inkscape"
   width="210mm"
   height="297mm"
   viewBox="0 0 744.09448819 1052.3622047"
   id="svg2"
   version="1.1"
   inkscape:version="0.91 r13725"
   sodipodi:docname="logo.svg">
  <defs
     id="defs4">
    <inkscape:perspective
       sodipodi:type="inkscape:persp3d"
       inkscape:vp_x="0 : 526.1811 : 1"
       inkscape:vp_y="0 : 1000 : 0"
       inkscape:vp_z="744.09449 : 526.1811 : 1"
       inkscape:persp3d-origin="372.04724 : 350.7874 : 1"
       id="perspective4257" />
  </defs>
  <sodipodi:namedview
     id="base"
     pagecolor="#ffffff"
     bordercolor="#666666"
     borderopacity="1.0"
     inkscape:pageopacity="0.0"
     inkscape:pageshadow="2"
     inkscape:zoom="0.49497475"
     inkscape:cx="543.88799"
     inkscape:cy="568.79899"
     inkscape:document-units="px"
     inkscape:current-layer="layer1"
     showgrid="false"
     inkscape:window-width="1366"
     inkscape:window-height="703"
     inkscape:window-x="0"
     inkscape:window-y="0"
     inkscape:window-maximized="1" />
  <metadata
     id="metadata7">
    <rdf:RDF>
      <cc:Work
         rdf:about="">
        <dc:format>image/svg+xml</dc:format>
        <dc:type
           rdf:resource="http://purl.org/dc/dcmitype/StillImage" />
        <dc:title></dc:title>
      </cc:Work>
    </rdf:RDF>
  </metadata>
  <g
     inkscape:label="Layer 1"
     inkscape:groupmode="layer"
     id="layer1">
    <path
       style="fill:#ffffff;fill-opacity:1;stroke:#231f20;stroke-width:0;stroke-linecap:round;stroke-linejoin:miter;stroke-miterlimit:4;stroke-dasharray:none;stroke-dashoffset:7.19999981;stroke-opacity:1"
       id="path4243"
       d="m -546.29498,350.49852 c -0.29208,7.90503 -0.19628,15.81796 -0.19011,23.72671 0.0118,7.58398 0.013,15.16812 0.0522,22.75202 0.0498,6.35579 0.0145,12.71182 0.0355,19.06774 -0.004,6.51651 -0.0346,13.03309 -0.0168,19.54959 0.0253,6.34982 0.0179,12.6999 -0.005,19.04976 -0.0501,7.22736 -0.018,14.45473 -0.0259,21.68214 -0.027,6.91858 0.0116,13.8371 0.0466,20.75557 -0.26423,5.30676 0.50789,10.53719 1.18891,15.77883 0.14582,0.74159 0.29163,1.48317 0.43745,2.22476 0,0 -26.29367,14.08716 -26.29367,14.08716 l 0,0 c -0.18004,-0.81721 -0.36009,-1.63442 -0.54013,-2.45163 -0.6276,-5.37539 -1.62094,-10.72525 -1.24498,-16.16094 0.0349,-6.93429 0.0735,-13.86865 0.0466,-20.80305 -0.008,-7.21862 0.0242,-14.43718 -0.0259,-21.65574 -0.0227,-6.34824 -0.03,-12.6967 -0.005,-19.0449 0.0177,-6.51079 -0.0131,-13.02165 -0.0168,-19.53245 0.0209,-6.36797 -0.0142,-12.73604 0.0355,-19.10388 0.0392,-7.60165 0.0405,-15.20352 0.0522,-22.80525 0.006,-7.84412 0.10472,-15.69271 -0.19012,-23.53297 0,0 26.65906,-13.58347 26.65906,-13.58347 z"
       inkscape:connector-curvature="0" />
    <path
       style="fill:#ffffff;fill-opacity:1;stroke:#231f20;stroke-width:0;stroke-linecap:round;stroke-linejoin:miter;stroke-miterlimit:4;stroke-dasharray:none;stroke-dashoffset:7.19999981;stroke-opacity:1"
       id="path4245"
       d="m -532.15285,570.71178 c -0.12908,6.30152 -0.48864,12.63296 0.58313,18.86643 1.11267,5.3972 3.43847,10.43014 5.19514,15.63107 1.4942,2.42575 2.11154,8.97871 4.25049,10.62477 0.51841,0.39895 1.23137,0.442 1.84706,0.66301 11.54704,-0.0586 22.47283,-4.13013 33.25616,-7.80999 7.87482,-2.81599 15.9384,-5.1529 23.71366,-8.23768 4.54561,-2.2664 0.91105,-0.35598 5.16337,-2.85561 0.77826,-0.45748 3.14343,-1.77711 2.36133,-1.32622 -41.77074,24.0809 -27.30285,15.96941 -18.42527,10.38481 13.23934,-9.52268 27.57995,-17.15247 41.70476,-25.31559 -7.50504,4.32589 -15.00824,8.65498 -22.51513,12.97767 -0.99243,0.57148 1.9792,-1.15276 2.97177,-1.724 9.49295,-5.46333 18.98332,-10.93114 28.48476,-16.37969 7.40748,-4.24778 -14.76863,8.57663 -22.20288,12.77738 -1.76476,0.99719 3.36103,-2.27347 4.95106,-3.53067 4.01792,-3.71335 6.18878,-8.76564 7.79516,-13.88792 1.57844,-4.83852 2.58837,-9.80888 3.14734,-14.85955 0.44756,-4.69717 0.40186,-9.41912 0.44198,-14.13165 0.007,-4.72908 -0.0326,-9.45807 -0.0535,-14.18707 0.2044,-4.4094 -0.18201,-8.74726 -0.80659,-13.10384 -0.74678,-5.02422 -2.58752,-9.76841 -3.84577,-14.66756 -1.21933,-5.12831 -3.69827,-9.86804 -6.15288,-14.50129 -2.69643,-4.55495 -6.72677,-7.12753 -11.7519,-8.36408 -4.0331,-0.71221 -8.14776,-0.60989 -12.22638,-0.58062 -4.07492,-0.14591 -8.00493,0.0705 -11.98904,0.86466 -4.066,0.60536 -8.07494,1.04056 -12.07887,1.95851 -4.31812,0.24973 -7.98802,2.3867 -11.98635,3.75233 -10.18957,4.69395 -3.88623,1.85786 21.9201,-12.66548 0.60261,-0.33913 -1.18721,0.71208 -1.75056,1.11306 -1.97156,1.40332 -3.65292,3.10972 -5.33811,4.83163 -4.05226,4.36227 -7.4926,9.17934 -10.54893,14.27451 -2.61337,4.82613 -5.29475,9.63112 -7.52778,14.64834 -1.74808,4.83574 -3.26087,9.7635 -4.59203,14.73004 -1.1976,4.56507 -1.57005,9.26872 -1.75705,13.96591 -0.11547,4.48562 -0.0756,8.97333 -0.0563,13.45987 0.0195,4.08192 0.0269,8.16388 0.0312,12.24585 0.0769,3.93978 -0.35264,7.89615 0.6193,11.7456 1.54709,3.92432 4.78006,6.8408 8.36589,8.90971 4.10003,2.38089 8.70177,3.2756 13.3537,3.75646 4.1397,0.31385 8.29532,0.26558 12.4436,0.24998 4.0025,-0.19491 8.07536,0.3715 12.01606,-0.42835 4.07331,-0.89306 7.97417,-2.47266 11.90639,-3.85561 0.6524,-0.31315 1.32127,-0.59408 1.9572,-0.93945 1.41549,-0.76875 2.75162,-1.67577 4.14292,-2.48747 0.85126,-0.49663 3.41886,-1.96266 2.56456,-1.47127 -23.5843,13.5657 -29.91048,17.93427 -20.23902,11.38864 3.91923,-2.94509 7.71485,-6.19263 9.51922,-10.85502 0.65349,-3.80992 -2.05461,-5.06257 -5.2561,-5.7722 -3.93173,-0.77236 -7.80705,-1.67181 -11.8112,-2.07828 -4.02619,-0.32848 -8.06908,-0.33048 -12.10576,-0.34236 -4.04063,-9.6e-4 -8.08126,0.0104 -12.12189,0.0161 -2.02038,0.003 -4.04076,0.004 -6.06115,0.005 0,0 24.19072,-17.57818 24.19072,-17.57818 l 0,0 c 2.01992,-0.002 4.03984,-0.003 6.05975,-0.007 4.04543,-0.006 8.09095,-0.0209 12.13634,0.006 4.10548,0.0473 8.22102,0.11237 12.30031,0.62547 4.10093,0.58758 8.14093,1.49761 12.15713,2.50716 4.41802,1.7495 7.42252,4.69845 7.47926,9.73136 -0.92901,5.51493 -4.64667,9.34689 -8.87149,12.791 -11.87044,9.43269 -25.85677,16.43166 -39.5975,22.83975 -3.99998,1.4443 -8.08306,2.84916 -12.32434,3.34405 -4.07325,0.20049 -8.15383,0.0963 -12.23102,0.13548 -4.21854,-0.0162 -8.45245,-0.0308 -12.6411,-0.5971 -4.94956,-0.8072 -9.76568,-2.17054 -14.07615,-4.82495 -4.01573,-2.75312 -7.62066,-6.17867 -9.49914,-10.7663 -1.27432,-4.09206 -1.09164,-8.21662 -1.0192,-12.47025 -0.002,-4.08309 -0.006,-8.16618 -0.0121,-12.24927 -0.005,-4.52715 -0.0154,-9.05475 0.0674,-13.58135 0.11889,-4.89417 0.34236,-9.79883 1.51403,-14.57804 1.26131,-5.08613 2.86593,-10.07487 4.36574,-15.09403 2.04235,-5.21849 4.95231,-10.01429 7.444,-15.02305 2.91127,-5.28684 6.27962,-10.28374 10.27638,-14.81844 9.07871,-11.28264 22.8823,-17.99671 36.14702,-23.23516 3.99168,-1.56044 7.98441,-2.8589 12.2562,-3.42999 4.02471,-0.79566 8.13238,-1.04035 12.15642,-1.8615 4.07514,-0.57981 8.18414,-0.43094 12.29203,-0.45815 4.2647,0.0383 8.58274,0.0949 12.7041,1.33189 5.4633,1.99179 9.8325,5.36289 12.87792,10.405 2.60317,4.83064 5.19414,9.77567 6.61291,15.10009 1.16618,5.02416 3.02453,9.8481 3.97389,14.92758 0.64709,4.48058 1.37924,8.9098 1.0375,13.45935 -0.006,4.74164 -0.0175,9.48331 -0.003,14.22494 0.0293,4.7922 0.033,9.5936 -0.26703,14.37768 -0.48479,5.21618 -1.3864,10.37326 -2.9824,15.37564 -1.46797,5.52057 -3.5566,10.95029 -7.15848,15.45645 -9.3128,9.01808 -22.82564,14.48 -33.29458,20.54425 -7.39195,4.28186 14.79037,-8.55256 22.1837,-12.83205 0.98331,-0.56917 -1.9691,1.13405 -2.95364,1.70108 -9.40167,5.43495 -18.80333,10.86991 -28.20499,16.30486 44.41797,-25.75859 18.53845,-11.40218 9.04235,-4.12886 -12.77847,8.59106 -26.11532,16.56884 -40.15622,22.88134 -7.73754,2.72407 -15.54532,5.2484 -23.33767,7.80984 -9.59487,3.12737 -20.85196,7.44583 -31.07533,6.99206 -1.40983,-0.0626 -2.7748,-0.51643 -4.1622,-0.77464 -0.88871,-0.61877 -1.89863,-1.09235 -2.66613,-1.85631 -2.90609,-2.89271 -2.59596,-7.92399 -4.56275,-11.3382 -1.70757,-5.36398 -4.1832,-10.48446 -5.29421,-16.02906 -1.26236,-6.37138 -0.87508,-12.77329 -1.0507,-19.23957 0,0 26.65905,-13.58346 26.65905,-13.58346 z"
       inkscape:connector-curvature="0" />
    <path
       style="fill:#982c4b;fill-opacity:1"
       d="m 346.03317,751.06194 c -1.9299,-0.4766 -12.7198,-2.1202 -23.9776,-3.6524 -14.2357,-1.9375 -20.4687,-3.7464 -20.4687,-5.9404 0,-1.735 8.9478,-36.4454 19.8839,-77.13423 10.9361,-40.6888 19.8839,-77.0155 19.8839,-80.7261 0,-3.7105 -2.022,-8.6296 -4.4934,-10.9313 -2.4713,-2.3017 -42.8768,-29.4491 -89.79,-60.3276 l -85.2967,-56.1427 202.6603,-5.071 c 111.4632,-2.789 211.8712,-5.1575 223.129,-5.2634 l 20.4687,-0.1924 0,-14.9567 0,-14.9566 -126.4117,-70.7264 c -69.5264,-38.8995 -126.0838,-71.05417 -125.683,-71.45487 0.4008,-0.4008 15.2786,-3.3684 33.0618,-6.5945 17.7833,-3.2262 34.6021,-7.3659 37.3752,-9.1993 4.1412,-2.7379 9.15,-18.7452 28.0336,-89.5901 12.6454,-47.4412 23.4481,-86.713202 24.006,-87.271102 2.1405,-2.1406 27.2301,7.4467 50.7132,19.378602 100.1088,50.8658 169.0277,145.7986 185.2731,255.20577 27.2081,183.2374 -91.3966,351.92243 -274,389.69523 -20.9562,4.3349 -84.543,8.2778 -94.3676,5.8515 z m 109.4841,-66.07743 c 11.1362,-8.3144 15.6674,-16.6348 15.6674,-28.7689 0,-26.3286 -30.0192,-43.868 -52.0703,-30.4233 -23.4092,14.2727 -22.3809,48.996 1.8224,61.5464 10.0095,5.1903 25.9268,4.1067 34.5805,-2.3542 z m -204.6418,43.97963 c -43.6537,-17.2254 -79.8596,-40.43083 -114.0108,-73.07263 -50.188006,-47.97 -82.654106,-105.6897 -99.095806,-176.1776 -5.3402,-22.8939 -6.0482,-31.0562 -6.1988,-71.462 -0.1476,-39.6138 0.5454,-48.811 5.2669,-69.8988 C 68.476264,197.04244 175.12167,93.407238 314.15097,68.866738 c 38.2892,-6.7586 118.6773,-5.4206 131.5081,2.1889 1.7049,1.0111 -4.4766,27.5342 -18.7142,80.298202 -11.693,43.3337 -21.9491,79.4628 -22.7912,80.287 -1.2604,1.2334 -88.1606,17.5402 -93.4734,17.5402 -1.7557,0 -16.9054,25.8454 -15.6798,26.7497 0.406,0.2996 56.1608,31.51017 123.8996,69.35697 l 123.1614,68.8124 -15.5545,1.5681 c -8.555,0.8625 -95.0316,3.2439 -192.1702,5.2922 -97.1386,2.0482 -186.3038,4.332 -198.1449,5.075 l -21.5294,1.3511 -7.4713,11.643 c -6.3313,9.8665 -6.9726,12.1013 -4.2027,14.6463 1.7977,1.6518 48.5336,32.7702 103.8576,69.1519 55.324,36.3817 100.9936,66.5059 101.488,66.9426 1.3109,1.1579 -37.7215,145.99573 -39.3188,145.90033 -0.7414,-0.044 -8.9043,-3.0622 -18.1398,-6.7065 z m 74.0747,-534.2296 c 22.3156,-11.8009 25.2812,-39.7426 6.118,-57.645 -7.8957,-7.3762 -27.7301,-9.4472 -38.2713,-3.9961 -21.0662,10.8938 -25.0978,39.6576 -7.8716,56.1613 11.9392,11.4385 25.2981,13.2674 40.0249,5.4798 z"
       id="path4296"
       inkscape:connector-curvature="0" />
  </g>
</svg>
