<?xml version="1.0" encoding="UTF-8" standalone="no"?>
<!-- Created with Inkscape (http://www.inkscape.org/) -->

<svg
   xmlns:dc="http://purl.org/dc/elements/1.1/"
   xmlns:cc="http://creativecommons.org/ns#"
   xmlns:rdf="http://www.w3.org/1999/02/22-rdf-syntax-ns#"
   xmlns:svg="http://www.w3.org/2000/svg"
   xmlns="http://www.w3.org/2000/svg"
   xmlns:sodipodi="http://sodipodi.sourceforge.net/DTD/sodipodi-0.dtd"
   xmlns:inkscape="http://www.inkscape.org/namespaces/inkscape"
   width="210mm"
   height="297mm"
   viewBox="0 0 744.09448819 1052.3622047"
   id="svg2"
   version="1.1"
   inkscape:version="0.91 r13725"
   sodipodi:docname="logo.svg">
  <defs
     id="defs4">
    <inkscape:perspective
       sodipodi:type="inkscape:persp3d"
       inkscape:vp_x="0 : 526.1811 : 1"
       inkscape:vp_y="0 : 1000 : 0"
       inkscape:vp_z="744.09449 : 526.1811 : 1"
       inkscape:persp3d-origin="372.04724 : 350.7874 : 1"
       id="perspective4257" />
  </defs>
  <sodipodi:namedview
     id="base"
     pagecolor="#ffffff"
     bordercolor="#666666"
     borderopacity="1.0"
     inkscape:pageopacity="0.0"
     inkscape:pageshadow="2"
     inkscape:zoom="0.35"
     inkscape:cx="-14.128019"
     inkscape:cy="424.17272"
     inkscape:document-units="px"
     inkscape:current-layer="layer1"
     showgrid="false"
     inkscape:window-width="1366"
     inkscape:window-height="703"
     inkscape:window-x="0"
     inkscape:window-y="0"
     inkscape:window-maximized="1" />
  <metadata
     id="metadata7">
    <rdf:RDF>
      <cc:Work
         rdf:about="">
        <dc:format>image/svg+xml</dc:format>
        <dc:type
           rdf:resource="http://purl.org/dc/dcmitype/StillImage" />
        <dc:title />
      </cc:Work>
    </rdf:RDF>
  </metadata>
  <g
     inkscape:label="Layer 1"
     inkscape:groupmode="layer"
     id="layer1">
    <path
       style="fill:#982c4b;fill-opacity:1"
       d="m 346.03317,751.06194 c -1.9299,-0.4766 -12.7198,-2.1202 -23.9776,-3.6524 -14.2357,-1.9375 -20.4687,-3.7464 -20.4687,-5.9404 0,-1.735 8.9478,-36.4454 19.8839,-77.13423 10.9361,-40.6888 19.8839,-77.0155 19.8839,-80.7261 0,-3.7105 -2.022,-8.6296 -4.4934,-10.9313 -2.4713,-2.3017 -42.8768,-29.4491 -89.79,-60.3276 l -85.2967,-56.1427 202.6603,-5.071 c 111.4632,-2.789 211.8712,-5.1575 223.129,-5.2634 l 20.4687,-0.1924 0,-14.9567 0,-14.9566 -126.4117,-70.7264 c -69.5264,-38.8995 -126.0838,-71.05417 -125.683,-71.45487 0.4008,-0.4008 15.2786,-3.3684 33.0618,-6.5945 17.7833,-3.2262 34.6021,-7.3659 37.3752,-9.1993 4.1412,-2.7379 9.15,-18.7452 28.0336,-89.5901 12.6454,-47.4412 23.4481,-86.713202 24.006,-87.271102 2.1405,-2.1406 27.2301,7.4467 50.7132,19.378602 100.1088,50.8658 169.0277,145.7986 185.2731,255.20577 27.2081,183.2374 -91.3966,351.92243 -274,389.69523 -20.9562,4.3349 -84.543,8.2778 -94.3676,5.8515 z m 109.4841,-66.07743 c 11.1362,-8.3144 15.6674,-16.6348 15.6674,-28.7689 0,-26.3286 -30.0192,-43.868 -52.0703,-30.4233 -23.4092,14.2727 -22.3809,48.996 1.8224,61.5464 10.0095,5.1903 25.9268,4.1067 34.5805,-2.3542 z m -204.6418,43.97963 c -43.6537,-17.2254 -79.8596,-40.43083 -114.0108,-73.07263 -50.188006,-47.97 -82.654106,-105.6897 -99.095806,-176.1776 -5.3402,-22.8939 -6.0482,-31.0562 -6.1988,-71.462 -0.1476,-39.6138 0.5454,-48.811 5.2669,-69.8988 C 68.476264,197.04244 175.12167,93.407238 314.15097,68.866738 c 38.2892,-6.7586 118.6773,-5.4206 131.5081,2.1889 1.7049,1.0111 -4.4766,27.5342 -18.7142,80.298202 -11.693,43.3337 -21.9491,79.4628 -22.7912,80.287 -1.2604,1.2334 -88.1606,17.5402 -93.4734,17.5402 -1.7557,0 -16.9054,25.8454 -15.6798,26.7497 0.406,0.2996 56.1608,31.51017 123.8996,69.35697 l 123.1614,68.8124 -15.5545,1.5681 c -8.555,0.8625 -95.0316,3.2439 -192.1702,5.2922 -97.1386,2.0482 -186.3038,4.332 -198.1449,5.075 l -21.5294,1.3511 -7.4713,11.643 c -6.3313,9.8665 -6.9726,12.1013 -4.2027,14.6463 1.7977,1.6518 48.5336,32.7702 103.8576,69.1519 55.324,36.3817 100.9936,66.5059 101.488,66.9426 1.3109,1.1579 -37.7215,145.99573 -39.3188,145.90033 -0.7414,-0.044 -8.9043,-3.0622 -18.1398,-6.7065 z m 74.0747,-534.2296 c 22.3156,-11.8009 25.2812,-39.7426 6.118,-57.645 -7.8957,-7.3762 -27.7301,-9.4472 -38.2713,-3.9961 -21.0662,10.8938 -25.0978,39.6576 -7.8716,56.1613 11.9392,11.4385 25.2981,13.2674 40.0249,5.4798 z"
       id="path4296"
       inkscape:connector-curvature="0" />
  </g>
</svg>
